<?xml version="1.0" standalone="no"?>
<!DOCTYPE svg PUBLIC "-//W3C//DTD SVG 20010904//EN"
 "http://www.w3.org/TR/2001/REC-SVG-20010904/DTD/svg10.dtd">
<svg version="1.0" xmlns="http://www.w3.org/2000/svg"
 width="512.000000pt" height="512.000000pt" viewBox="0 0 512.000000 512.000000"
 preserveAspectRatio="xMidYMid meet">

<g transform="translate(0.000000,512.000000) scale(0.100000,-0.100000)"
fill="#727989" stroke="none">
<path d="M2425 5106 c-126 -29 -274 -117 -347 -207 -83 -103 -140 -236 -153
-360 l-6 -55 -82 -40 c-381 -182 -690 -532 -831 -942 -76 -220 -78 -235 -86
-837 -8 -575 -13 -646 -66 -905 -83 -401 -250 -688 -474 -810 -37 -20 -74 -49
-87 -69 -30 -44 -31 -111 -3 -156 42 -67 12 -65 793 -65 l704 0 18 -68 c25
-90 93 -224 152 -297 69 -85 171 -167 266 -214 123 -60 191 -75 337 -75 146 0
214 15 337 75 95 47 197 129 266 214 59 73 127 207 152 297 l18 68 716 2 c698
3 717 3 743 23 39 30 58 68 58 118 0 62 -32 104 -110 147 -224 122 -391 409
-474 810 -53 260 -58 330 -66 905 -7 498 -9 548 -29 637 -110 498 -436 920
-878 1138 l-91 45 -12 80 c-37 249 -207 452 -440 526 -84 27 -242 34 -325 15z
m276 -308 c31 -14 74 -42 97 -62 39 -36 102 -139 91 -151 -3 -3 -30 0 -60 7
-35 9 -130 13 -269 13 -139 0 -234 -4 -269 -13 -30 -7 -56 -10 -59 -8 -7 8 18
63 49 105 36 51 85 87 156 117 78 33 182 30 264 -8z m85 -493 c280 -49 527
-177 730 -379 154 -155 262 -328 329 -529 63 -190 66 -226 75 -832 7 -546 13
-631 50 -798 l8 -37 -1418 0 -1418 0 8 38 c37 166 43 251 50 797 8 591 12 635
67 809 150 479 562 841 1058 930 109 19 350 20 461 1z m1308 -2975 c51 -127
104 -229 162 -313 l43 -62 -869 -3 c-479 -1 -1261 -1 -1740 0 l-869 3 44 64
c53 76 122 209 159 306 15 39 31 80 36 93 l10 22 1491 -2 1490 -3 43 -105z
m-1064 -681 c0 -6 -14 -41 -32 -78 -37 -78 -137 -182 -214 -223 -141 -76 -307
-76 -448 0 -74 39 -176 145 -214 221 -18 35 -32 70 -32 78 0 11 84 13 470 13
337 0 470 -3 470 -11z"/>
<path d="M2363 4105 c-165 -30 -337 -105 -473 -206 -253 -189 -418 -479 -450
-794 -13 -128 -4 -170 45 -214 75 -65 178 -45 222 44 6 11 13 60 17 108 18
222 100 400 254 551 144 141 316 219 524 235 85 7 113 13 138 31 86 61 78 200
-14 244 -41 19 -159 20 -263 1z"/>
</g>
</svg>
