<?xml version="1.0" standalone="no"?>
<!DOCTYPE svg PUBLIC "-//W3C//DTD SVG 20010904//EN"
 "http://www.w3.org/TR/2001/REC-SVG-20010904/DTD/svg10.dtd">
<svg version="1.0" xmlns="http://www.w3.org/2000/svg"
 width="512.000000pt" height="512.000000pt" viewBox="0 0 512.000000 512.000000"
 preserveAspectRatio="xMidYMid meet">

<g transform="translate(0.000000,512.000000) scale(0.100000,-0.100000)"
fill="#99a1b3" stroke="none">
<path d="M2315 5109 c-485 -50 -943 -235 -1334 -537 -111 -85 -348 -322 -433
-433 -158 -203 -309 -474 -394 -704 -47 -128 -107 -367 -130 -520 -26 -168
-26 -541 0 -710 23 -151 83 -391 131 -521 85 -231 235 -500 393 -703 81 -105
310 -336 412 -417 207 -163 488 -322 724 -409 130 -48 370 -108 521 -131 148
-22 532 -26 670 -6 482 69 888 240 1265 530 103 80 334 309 416 412 161 204
323 491 409 724 48 130 108 370 131 521 14 90 18 179 18 355 0 271 -13 386
-74 626 -48 190 -93 310 -185 499 -196 403 -500 749 -880 1004 -319 214 -661
345 -1055 406 -126 19 -477 28 -605 14z m450 -299 c785 -72 1480 -553 1825
-1264 106 -217 166 -409 206 -661 25 -154 25 -496 0 -650 -40 -252 -100 -444
-206 -661 -223 -458 -585 -820 -1045 -1045 -216 -105 -408 -165 -660 -205
-154 -25 -496 -25 -650 0 -433 70 -808 240 -1135 514 -498 417 -800 1067 -800
1722 0 655 301 1302 800 1723 464 390 1069 582 1665 527z"/>
<path d="M2488 4489 c-68 -35 -78 -71 -78 -279 0 -161 2 -185 20 -220 23 -45
80 -80 130 -80 50 0 107 35 130 80 18 35 20 59 20 220 0 161 -2 185 -20 220
-37 73 -127 99 -202 59z"/>
<path d="M1212 3960 c-101 -62 -95 -205 11 -258 64 -33 115 -24 167 28 52 52
61 103 28 167 -39 78 -133 107 -206 63z"/>
<path d="M3760 3961 c-50 -26 -84 -96 -75 -151 10 -57 68 -115 124 -125 56 -9
127 26 153 75 69 132 -71 272 -202 201z"/>
<path d="M2488 3589 c-23 -12 -46 -35 -58 -59 -19 -38 -20 -58 -20 -520 0
-420 2 -485 16 -513 22 -44 920 -944 966 -968 21 -10 51 -19 68 -19 50 0 107
35 130 80 25 49 25 90 1 138 -11 20 -213 230 -450 467 l-431 430 0 433 c0 414
-1 435 -20 472 -37 73 -127 99 -202 59z"/>
<path d="M688 2689 c-43 -22 -78 -81 -78 -129 0 -50 35 -107 80 -130 35 -18
59 -20 220 -20 210 0 244 10 280 80 25 50 25 90 0 140 -36 71 -69 80 -282 80
-162 -1 -187 -3 -220 -21z"/>
<path d="M3988 2689 c-43 -22 -78 -81 -78 -129 0 -50 35 -107 80 -130 35 -18
59 -20 220 -20 161 0 185 2 220 20 45 23 80 80 80 130 0 50 -35 107 -80 130
-35 18 -58 20 -222 20 -162 -1 -187 -3 -220 -21z"/>
<path d="M1221 1418 c-104 -56 -109 -197 -9 -258 71 -43 165 -15 206 61 68
127 -70 265 -197 197z"/>
<path d="M3784 1429 c-18 -5 -45 -24 -62 -43 -85 -97 -17 -246 113 -246 152 0
200 208 65 278 -47 24 -67 25 -116 11z"/>
<path d="M2488 1189 c-68 -35 -78 -71 -78 -279 0 -210 10 -244 80 -280 50 -25
90 -25 140 0 70 36 80 70 80 280 0 161 -2 185 -20 220 -37 73 -127 99 -202 59z"/>
</g>
</svg>
