<?xml version="1.0" standalone="no"?>
<!DOCTYPE svg PUBLIC "-//W3C//DTD SVG 20010904//EN"
 "http://www.w3.org/TR/2001/REC-SVG-20010904/DTD/svg10.dtd">
<svg version="1.0" xmlns="http://www.w3.org/2000/svg"
 width="512.000000pt" height="512.000000pt" viewBox="0 0 512.000000 512.000000"
 preserveAspectRatio="xMidYMid meet">

<g transform="translate(0.000000,512.000000) scale(0.100000,-0.100000)"
fill="#99a1b3" stroke="none">
<path d="M2790 5097 c-157 -47 -95 10 -1452 -1346 -1382 -1382 -1304 -1296
-1330 -1450 -15 -87 -1 -169 43 -261 29 -60 110 -144 978 -1011 867 -868 951
-949 1011 -978 92 -44 174 -58 261 -43 153 26 69 -51 1445 1324 1371 1370
1308 1301 1353 1468 20 73 21 98 21 996 0 575 -4 942 -10 975 -32 169 -170
307 -340 339 -33 6 -396 10 -979 9 l-926 0 -75 -22z m1170 -849 c200 -60 329
-262 300 -469 -26 -182 -177 -333 -359 -359 -279 -39 -520 202 -481 481 36
252 297 420 540 347z"/>
</g>
</svg>
